<?xml version="1.0" encoding="UTF-8"?>
<!DOCTYPE svg PUBLIC "-//W3C//DTD SVG 1.1//EN" "http://www.w3.org/Graphics/SVG/1.1/DTD/svg11.dtd">
<!-- Creator: CorelDRAW 2021 (64-Bit) -->
<svg xmlns="http://www.w3.org/2000/svg" xml:space="preserve" width="8.83446in" height="8.83446in" version="1.1" style="shape-rendering:geometricPrecision; text-rendering:geometricPrecision; image-rendering:optimizeQuality; fill-rule:evenodd; clip-rule:evenodd"
viewBox="0 0 8738.43 8738.43"
 xmlns:xlink="http://www.w3.org/1999/xlink"
 xmlns:xodm="http://www.corel.com/coreldraw/odm/2003">
 <defs>
  <style type="text/css">
   <![CDATA[
    .fil1 {fill:white}
    .fil0 {fill:#57BBDD;fill-rule:nonzero}
   ]]>
  </style>
 </defs>
 <g id="Layer_x0020_1">
  <metadata id="CorelCorpID_0Corel-Layer"/>
  <g id="_2128394304176">
   <circle class="fil0" cx="4369.21" cy="4369.21" r="4369.21"/>
   <circle class="fil1" cx="4369.21" cy="4369.21" r="3733.5"/>
   <path class="fil0" d="M4369.16 2327.19c274.52,0 497.06,-222.54 497.06,-497.06 0,-274.51 -222.54,-497.05 -497.06,-497.05 -274.52,0 -497.05,222.54 -497.05,497.05 0,274.52 222.53,497.06 497.05,497.06z"/>
   <path class="fil0" d="M5175.89 2012.59c-83.55,369.02 -412.76,645.98 -806.67,645.98 -393.91,0 -723.12,-276.96 -806.67,-645.98 -296.3,66.02 -518.82,330.02 -518.82,645.98l0 662.75c0,182.68 148.7,331.38 331.38,331.38 182.67,0 331.37,-148.7 331.37,-331.38l0 -331.37 1325.48 0 0 331.37c0,182.68 148.7,331.38 331.37,331.38 182.67,0 331.37,-148.7 331.37,-331.38l0 -662.75c-0.01,-315.96 -222.53,-579.95 -518.83,-645.98z"/>
   <path class="fil0" d="M6937.27 5382.46c-237.75,-137.27 -541.74,-55.83 -679,181.93 -137.26,237.73 -55.8,541.74 181.95,678.98 237.73,137.27 552.78,55.8 690.03,-181.93 137.27,-237.74 44.76,-541.73 -192.97,-678.98z"/>
   <path class="fil0" d="M6634.03 4250.79l-573.94 -331.37c-158.21,-91.34 -361.32,-36.91 -452.66,121.3 -91.34,158.21 -36.91,361.32 121.3,452.66l286.98 165.68 -662.75 1147.9 -286.98 -165.68c-158.21,-91.34 -361.32,-36.91 -452.67,121.3 -91.33,158.21 -36.91,361.32 121.3,452.66l573.94 331.37c273.65,157.98 613.53,97.27 818.84,-126.33 -277.8,-256.85 -353.06,-680.44 -156.1,-1021.59 196.96,-341.15 601.42,-487.75 962.77,-375.62 90.99,-289.59 -26.38,-614.32 -300.03,-772.29z"/>
   <path class="fil0" d="M2480.16 5564.39c-137.27,-237.75 -441.25,-319.2 -679,-181.93 -237.73,137.26 -330.25,441.24 -192.97,678.99 137.25,237.73 452.3,319.19 690.03,181.93 237.75,-137.27 319.2,-441.26 181.95,-678.99z"/>
   <path class="fil0" d="M4125.11 5762.59c-91.33,-158.21 -294.46,-212.63 -452.66,-121.3l-286.98 165.68 -662.75 -1147.9 286.98 -165.68c158.21,-91.33 212.62,-294.46 121.3,-452.66 -91.34,-158.21 -294.46,-212.63 -452.66,-121.3l-573.94 331.37c-273.65,157.98 -391.02,482.7 -300.02,772.3 361.34,-112.15 765.82,34.46 962.77,375.62 196.95,341.15 121.69,764.72 -156.1,1021.59 205.31,223.58 545.19,284.3 818.84,126.32l573.94 -331.38c158.19,-91.34 212.62,-294.46 121.29,-452.66z"/>
   <path class="fil0" d="M4913.09 4937.61l0 -945.67 -36.09 3.02c-144.72,11.96 -286.65,46.56 -420.64,102.54l-63.51 26.36 0 941.93 46.25 -19.22c138.65,-57.69 285.44,-93.38 435.1,-105.81l38.88 -3.15z"/>
   <path class="fil0" d="M5031.32 4131.74l-70.94 0 0 827.64c0.05,12.32 -9.4,22.63 -21.71,23.65l-60.56 4.97c-17.48,1.44 -34.92,3.23 -52.27,5.36 -5.64,0.69 -11.23,1.59 -16.84,2.37 -11.71,1.56 -23.39,3.14 -35.03,4.99 -6.8,1.09 -13.54,2.35 -20.3,3.55 -10.43,1.82 -20.88,3.64 -31.28,5.69 -7.11,1.42 -14.19,3.01 -21.43,4.54 -9.91,2.11 -19.82,4.25 -29.65,6.6 -7.38,1.76 -14.73,3.61 -22.07,5.49 -9.57,2.36 -19.09,4.91 -28.61,7.57 -7.39,2.03 -14.8,4.18 -22.17,6.34 -9.46,2.81 -18.78,5.64 -28.12,8.62 -7.31,2.36 -14.63,4.74 -21.91,7.08 -9.36,3.16 -18.66,6.41 -27.93,9.78 -7.1,2.57 -14.19,5.15 -21.44,7.87 -3.25,1.24 -6.47,2.55 -9.7,3.8l541.98 0 0 -945.91z"/>
   <path class="fil0" d="M3861.42 3994.96l-36.09 -3.02 0 945.74 41.97 3.56c149.56,12.5 296.24,48.41 434.65,106.41l43.61 18.14 0 -941.93 -63.45 -26.34c-133.98,-55.99 -275.96,-90.6 -420.69,-102.57z"/>
   <path class="fil0" d="M3707.1 4131.74l0 945.87 542.37 0c-2.91,-1.14 -5.83,-2.36 -8.76,-3.45 -6.76,-2.57 -13.58,-5.03 -20.39,-7.52 -9.61,-3.49 -19.2,-6.87 -28.88,-10.12 -7,-2.38 -14.02,-4.67 -21.06,-6.91 -9.59,-3.16 -19.22,-6.12 -28.85,-8.9 -7.11,-2.07 -14.19,-4.16 -21.29,-6.14 -9.72,-2.69 -19.47,-5.24 -29.23,-7.75 -7.1,-1.83 -14.19,-3.65 -21.44,-5.35 -9.91,-2.36 -19.88,-4.53 -29.83,-6.68 -7.08,-1.53 -14.19,-3.08 -21.27,-4.51 -10.32,-2.03 -20.67,-3.85 -31.03,-5.67 -6.78,-1.18 -13.57,-2.36 -20.37,-3.57 -11.43,-1.81 -22.9,-3.35 -34.37,-4.9 -5.79,-0.77 -11.54,-1.69 -17.34,-2.35 -17.33,-2.1 -34.68,-3.89 -52.01,-5.36l-63.66 -5.4c-12.27,-1.05 -21.69,-11.34 -21.64,-23.65l0 -827.64 -70.93 0z"/>
  </g>
 </g>
</svg>
